# xmcd
#
# Track frame offsets: 
#        150
#        21778
#        41086
#        60894
#        78272
#        102954
#        121588
#        140134
#
# Disc length: 2171 seconds
#
# Revision: 0
# Processed by: cddbd v1.5.2PL0 Copyright (c) Steve Scherf et al.
# Submitted via: ExactAudioCopy v1.0b3
#
DISCID=5d087908
DTITLE=Ilir Shaqiri - Ringjalle
DYEAR=2000
DGENRE=Folk - Shqip
TTITLE0=Këtu Shkëlqen Plisi
TTITLE1=Kthehu
TTITLE2=Gjaku i Shprishur
TTITLE3=Fjalët e Qiririt
TTITLE4=Kosovë
TTITLE5=Poemi Kosovar
TTITLE6=Nçn Qjellin Tim
TTITLE7=Ënderr Jete
EXTD=
EXTT0=
EXTT1=
EXTT2=
EXTT3=
EXTT4=
EXTT5=
EXTT6=
EXTT7=
PLAYORDER=
